<svg version="1.0" xmlns="http://www.w3.org/2000/svg"
 width="700.000000pt" height="700.000000pt" viewBox="0 0 700.000000 700.000000"
 preserveAspectRatio="xMidYMid meet">
<g transform="translate(0.000000,700.000000) scale(0.100000,-0.100000)"
fill="#000000" stroke="none">
<path d="M2502 6980 c-12 -12 -22 -29 -22 -40 0 -28 685 -1530 715 -1567 l26
-33 278 0 c251 0 281 2 300 18 26 20 721 1543 721 1578 0 13 -10 32 -22 44
-21 19 -34 20 -302 20 -269 0 -281 -1 -302 -21 -12 -11 -104 -202 -205 -425
-101 -222 -186 -404 -189 -404 -3 0 -88 182 -189 404 -101 223 -193 414 -205
425 -21 20 -33 21 -302 21 -268 0 -281 -1 -302 -20z"/>
<path d="M2895 5517 c-55 -14 -136 -97 -158 -161 -45 -132 6 -342 105 -431 87
-80 211 -121 395 -131 l113 -7 -6 -41 c-3 -23 -21 -111 -40 -196 -19 -85 -47
-215 -62 -287 l-27 -133 -1563 0 c-1724 0 -1597 5 -1636 -60 -15 -26 -16 -193
-16 -2005 0 -1812 1 -1979 16 -2005 9 -15 29 -35 44 -44 26 -15 299 -16 3440
-16 3141 0 3414 1 3440 16 15 9 35 29 44 44 15 26 16 193 16 2005 0 1812 -1
1979 -16 2005 -39 65 88 60 -1627 60 l-1556 0 -11 58 c-7 31 -20 94 -30 140
-10 45 -16 82 -15 82 2 0 47 -12 100 -26 116 -31 141 -27 161 23 22 53 8 73
-83 123 -90 49 -187 116 -221 153 -13 14 -26 43 -29 64 l-5 40 103 7 c296 19
450 123 494 333 32 152 12 247 -69 329 -58 57 -117 80 -167 62 -54 -19 -51
-97 4 -126 17 -9 46 -31 64 -48 31 -30 33 -36 33 -104 0 -174 -61 -250 -229
-286 -94 -20 -708 -20 -802 0 -168 36 -229 112 -229 286 0 69 2 73 33 104 19
17 49 40 68 51 55 32 53 105 -2 124 -18 6 -32 11 -33 10 -1 -1 -19 -6 -41 -12z
m666 -1029 c32 -62 51 -138 83 -325 l6 -33 -140 0 -140 0 0 24 c0 13 9 68 20
122 39 191 86 287 130 264 11 -6 29 -29 41 -52z m-312 -653 c48 -91 162 -160
262 -159 94 1 213 77 254 163 20 40 21 41 71 41 106 0 166 -105 118 -206 -30
-64 -32 -64 -457 -64 -375 0 -385 1 -411 21 -35 28 -56 70 -56 114 0 44 21 86
56 114 20 16 41 21 83 21 l56 0 24 -45z m333 29 c-35 -24 -94 -29 -130 -10
-18 9 -32 19 -32 21 0 3 42 5 92 5 88 0 91 -1 70 -16z m-1004 -94 c60 -13 118
-60 143 -114 18 -39 19 -105 19 -1587 l0 -1547 -28 -53 c-22 -43 -38 -59 -81
-81 l-53 -28 -1028 0 -1028 0 -53 28 c-43 22 -59 38 -81 81 l-28 54 2 1558 3
1557 30 43 c32 46 77 77 128 89 51 13 1998 12 2055 0z m1982 -680 c85 -14 181
-61 223 -110 36 -42 67 -122 67 -171 l0 -29 -93 0 -94 0 -12 39 c-31 106 -205
153 -322 89 -44 -25 -60 -50 -61 -97 -1 -84 36 -105 265 -152 171 -35 237 -61
285 -108 49 -50 65 -94 65 -186 0 -221 -160 -336 -450 -323 -143 7 -208 31
-284 107 -55 56 -78 101 -93 189 l-5 32 97 0 97 0 20 -52 c22 -58 61 -91 129
-109 57 -15 173 -7 220 16 97 47 102 176 8 224 -21 11 -94 31 -162 46 -253 54
-318 84 -362 167 -33 61 -33 193 0 260 67 137 245 202 462 168z m-775 -32 c42
-23 83 -65 108 -113 29 -53 32 -212 5 -261 -22 -40 -74 -91 -110 -106 -15 -7
-28 -15 -28 -18 0 -3 21 -17 46 -32 64 -39 75 -73 83 -245 6 -128 9 -144 29
-166 40 -42 31 -47 -92 -47 -99 0 -115 2 -122 18 -4 9 -10 86 -14 170 -6 149
-7 154 -33 180 -27 27 -29 27 -187 30 l-160 3 0 -200 0 -201 -100 0 -100 0 0
506 0 505 323 -3 c277 -3 326 -5 352 -20z m1905 -63 l0 -85 -95 0 -95 0 0 85
0 85 95 0 95 0 0 -85z m870 -420 l0 -505 -95 0 -95 0 0 35 c0 42 -10 44 -37 6
-50 -67 -191 -93 -286 -52 -192 82 -268 378 -154 594 93 177 309 233 427 112
19 -19 38 -35 42 -35 4 0 8 79 8 175 l0 175 95 0 95 0 0 -505z m-870 -130 l0
-375 -95 0 -95 0 0 375 0 375 95 0 95 0 0 -375z m-340 5 l0 -90 -185 0 -185 0
0 90 0 90 185 0 185 0 0 -90z m-1253 -922 c46 -52 36 -94 -50 -203 -181 -230
-291 -405 -285 -454 3 -23 8 -26 45 -29 58 -4 88 14 207 127 114 109 158 131
255 131 76 0 118 -24 233 -129 72 -67 106 -92 133 -97 66 -12 139 4 256 57
199 90 252 88 408 -16 94 -62 173 -90 236 -83 50 6 164 56 253 111 73 45 71
40 43 212 -11 66 -15 114 -10 120 14 15 89 -16 111 -46 11 -14 24 -55 31 -92
6 -37 15 -67 21 -67 10 0 163 115 234 176 50 43 72 36 42 -13 -21 -34 -145
-144 -228 -202 l-53 -36 7 -50 c9 -68 28 -112 53 -120 31 -10 98 33 165 105
39 42 62 60 72 56 43 -16 -36 -122 -124 -167 -32 -16 -69 -25 -118 -27 -95 -5
-127 11 -151 77 l-17 49 -55 -38 c-115 -77 -249 -130 -331 -130 -55 0 -135 29
-217 78 -153 93 -201 98 -338 33 -107 -50 -187 -71 -275 -71 -85 0 -134 23
-213 99 -92 88 -131 111 -186 111 -63 0 -120 -37 -241 -156 -52 -51 -112 -100
-132 -109 -48 -19 -150 -20 -188 0 -62 32 -76 106 -35 194 22 47 150 241 224
341 24 31 24 33 4 19 -54 -37 -295 -264 -471 -443 -147 -150 -198 -196 -217
-196 -38 0 -43 40 -12 92 57 95 163 195 608 575 85 72 176 154 204 182 55 57
72 61 102 29z m2513 -1143 l0 -35 -1780 0 -1780 0 0 35 0 35 1780 0 1780 0 0
-35z"/>
<path d="M1430 3584 c-136 -23 -216 -49 -280 -90 -19 -13 -67 -30 -106 -38
-88 -18 -142 -45 -202 -99 -99 -91 -158 -223 -187 -418 -58 -382 63 -957 299
-1420 l64 -127 -32 -6 c-17 -4 -80 -9 -141 -12 -60 -3 -132 -10 -160 -16 -71
-15 -173 -56 -223 -90 l-43 -30 3 -358 c3 -344 4 -360 24 -386 11 -15 33 -37
48 -48 27 -21 33 -21 1056 -21 1023 0 1029 0 1056 21 15 11 37 33 48 48 20 26
21 42 24 412 l3 385 -65 30 c-96 45 -159 59 -267 59 -91 0 -199 21 -199 39 0
4 18 50 41 101 22 51 62 159 89 239 213 635 220 1207 17 1512 -97 147 -256
238 -512 295 -68 15 -304 27 -355 18z m-64 -564 c86 -72 205 -124 374 -164
241 -58 343 -106 432 -205 51 -57 90 -129 109 -203 12 -42 10 -54 -14 -129
-54 -163 -157 -335 -262 -439 l-55 -54 0 -97 c0 -53 5 -121 11 -150 19 -94 25
-85 -113 -173 l-128 -81 -62 -188 -63 -188 -60 183 -61 183 -139 92 c-129 85
-140 95 -137 120 2 16 5 88 8 162 l6 133 -40 42 c-60 62 -118 141 -164 220
-22 39 -43 73 -44 75 -2 2 -15 -1 -29 -7 -50 -23 -95 18 -134 123 -32 84 -32
167 -1 200 13 14 31 27 40 30 12 4 22 26 31 68 27 131 127 286 240 373 54 41
181 114 200 114 4 0 29 -18 55 -40z"/>
<path d="M3310 2774 l0 -136 171 3 171 4 28 32 c52 58 52 153 0 205 l-28 28
-171 0 -171 0 0 -136z"/>
<path d="M6119 2646 c-108 -75 -119 -308 -19 -408 37 -37 59 -44 120 -39 44 4
88 40 114 93 21 43 26 66 26 131 0 101 -14 148 -60 199 -32 37 -42 41 -90 45
-47 4 -61 0 -91 -21z"/>
</g>
</svg>
